<svg width="1002" height="716" viewBox="0 0 1002 716" fill="none" xmlns="http://www.w3.org/2000/svg">
<path fill-rule="evenodd" clip-rule="evenodd" d="M837.856 391.717C900.492 329.032 934.306 264.644 918.964 218.543C903.623 172.443 837.97 141.156 750.262 128.503C664.128 116.077 552.714 127.007 437.059 165.495C321.404 203.983 225.658 261.992 164.145 323.553C101.509 386.238 66.2716 451.1 81.6132 497.2C96.9547 543.301 164.031 574.114 251.738 586.767C337.873 599.193 449.286 588.263 564.941 549.775C680.596 511.287 776.343 453.278 837.856 391.717ZM572.52 572.547C809.381 493.724 969.375 333.605 929.876 214.912C890.377 96.2195 666.342 63.8992 429.481 142.723C192.62 221.547 32.6258 381.665 72.1248 500.358C111.624 619.051 335.658 651.371 572.52 572.547Z" fill="#EDF6FF"/>
<path fill-rule="evenodd" clip-rule="evenodd" d="M763.436 571.551C850.237 553.708 913.915 518.576 926.49 471.645C939.065 424.714 901.485 362.449 835.234 303.597C770.172 245.8 671.148 193.583 553.41 162.035C435.673 130.487 323.807 126.197 238.562 143.719C151.762 161.562 86.6352 196.306 74.0602 243.237C61.4851 290.168 100.514 352.821 166.764 411.673C231.827 469.47 330.851 521.687 448.589 553.235C566.326 584.783 678.192 589.073 763.436 571.551ZM442.377 576.417C683.504 641.027 905.222 595.451 937.598 474.621C969.974 353.791 800.749 203.462 559.622 138.853C318.495 74.2431 96.7772 119.819 64.4009 240.649C32.0246 361.479 201.25 511.808 442.377 576.417Z" fill="#EDF6FF"/>
</svg>
