<svg width="1736" height="317" viewBox="0 0 1736 317" fill="none" xmlns="http://www.w3.org/2000/svg">
<path d="M57.6503 31.5569C67.1591 21.7998 78.4467 13.9578 90.9026 8.45493C102.978 3.27723 115.989 0.64587 129.124 0.724998L129.133 0.724906C143.332 0.570193 157.398 3.48558 170.369 9.2721C183.341 15.0586 194.913 23.58 204.295 34.2546L204.295 34.2547L204.303 34.2637C224.946 56.624 235.281 85.2904 235.281 120.306C235.281 154.073 224.597 182.282 203.242 204.968C181.88 227.663 156.599 238.992 127.376 238.992L127.37 238.992C114.926 239.145 102.575 236.821 91.0352 232.154C78.5829 226.67 67.2415 218.943 57.5755 209.358L56.7234 208.513V209.713V316.501H1.20312V6.60514H56.7922V31.208V32.4374L57.6503 31.5569ZM117.212 52.4405C108.836 52.2162 100.505 53.7502 92.7566 56.9437C85.0041 60.1388 78.0056 64.9241 72.2118 70.9918C60.2499 83.3877 54.2968 99.5669 54.3198 119.481C54.32 139.826 60.2706 156.313 72.2078 168.893C77.9504 175.049 84.9326 179.914 92.693 183.166C100.45 186.417 108.808 187.982 117.214 187.758C125.543 187.909 133.808 186.276 141.456 182.97C149.107 179.662 155.963 174.756 161.567 168.58C173.544 155.776 179.532 139.476 179.555 119.722C179.578 99.9685 173.694 83.7922 161.873 71.2374C156.185 65.1095 149.26 60.2642 141.557 57.0233C133.859 53.784 125.56 52.2218 117.212 52.4405Z" stroke="#D4E9FF"/>
<path d="M323.073 141.63V233.146H267.484V6.60464H315.347V34.7494L316.306 34.9494C320.791 24.6765 328.028 15.8473 337.214 9.4394C345.639 3.72087 355.591 0.683325 365.768 0.72441C373.613 0.914207 381.317 2.83614 388.332 6.3509L370.93 54.5211C365.932 51.7843 360.406 50.1481 354.721 49.7251L354.702 49.7237H354.684C345.685 49.7237 338.132 55.3415 331.996 66.3137C328.907 71.8377 326.618 79.9642 325.104 90.6533C323.589 101.351 322.844 114.653 322.867 130.553L322.867 130.562L323.073 141.625V141.63Z" stroke="#D4E9FF"/>
<path d="M509.345 0.72183L509.35 0.721821C530.484 0.679144 551.255 6.21903 569.568 16.7826L569.572 16.785C587.753 27.0418 602.875 41.9667 613.381 60.0227C623.886 78.0786 629.396 98.6129 629.341 119.51L629.341 119.514C629.428 140.557 623.942 161.247 613.441 179.474L613.438 179.479C603.214 197.694 588.226 212.774 570.086 223.099L570.085 223.099C551.663 233.629 530.771 239.055 509.561 238.817L509.547 238.817C494.068 239.06 478.704 236.109 464.412 230.148C450.12 224.188 437.206 215.345 426.474 204.171L426.471 204.167C415.185 192.663 406.327 179.003 400.424 163.998C394.521 148.994 391.695 132.954 392.113 116.832C392.531 100.711 396.185 84.839 402.857 70.1618C409.529 55.4846 419.084 42.3026 430.95 31.4011L430.954 31.3978C452.199 11.4987 480.257 0.519197 509.345 0.72183ZM447.865 119.855V119.855C447.865 139.789 453.724 155.967 465.479 168.34C471.181 174.416 478.105 179.211 485.794 182.409C493.479 185.606 501.753 187.135 510.071 186.895C518.469 187.117 526.819 185.558 534.574 182.32C542.332 179.081 549.318 174.235 555.073 168.1C567.008 155.615 572.974 139.519 572.997 119.856C573.02 100.195 567.158 84.2104 555.38 71.9521C549.595 65.8784 542.595 61.0957 534.838 57.9167C527.083 54.7386 518.746 53.2347 510.371 53.5036H510.282C501.957 53.2938 493.681 54.847 485.996 58.0616C478.31 61.2767 471.389 66.0812 465.685 72.1607C453.82 84.599 447.888 100.511 447.865 119.855Z" stroke="#D4E9FF"/>
<path d="M743.525 68.2934L788.014 6.60364H852.024L775.438 112.894L775.226 113.187L775.438 113.479L862.116 233.042H796.942L743.043 158.628L742.637 158.067L742.233 158.629L688.609 233.042H624.599L710.251 114.132L710.462 113.839L710.251 113.546L632.877 6.60364H697.95L742.715 68.2945L743.12 68.854L743.525 68.2934Z" stroke="#D4E9FF"/>
<path d="M984.335 149.088L1049.44 6.60364H1106.72L964.845 316.397H906.718L953.12 216.903L953.212 216.705L953.13 216.503L867.223 6.60364H924.519L983.418 149.071L983.857 150.133L984.335 149.088Z" stroke="#D4E9FF"/>
<path d="M1180.33 132.478V233.145H1124.3V6.60377H1180.33V32.2382V33.559L1181.21 32.5693C1190.19 22.4096 1201.2 14.2516 1213.52 8.62343C1225.74 3.26837 1238.95 0.564294 1252.29 0.689286L1252.3 0.689066C1265.73 0.463541 1278.96 4.01165 1290.49 10.9312C1302.22 18.3113 1311.66 28.8128 1317.77 41.2616L1318.16 42.0536L1318.64 41.3133C1326.85 28.6427 1338.13 18.2581 1351.43 11.1253C1364.72 3.99251 1379.6 0.343358 1394.69 0.517209L1394.69 0.517302L1394.7 0.517134C1409.6 0.207365 1424.29 4.10343 1437.08 11.7598L1437.09 11.7617C1448.65 18.564 1457.82 28.794 1463.32 41.0389C1468.63 53.0883 1471.31 72.7252 1471.31 100.016V232.939H1415V118.207C1415 105.293 1414.2 94.4463 1412.6 85.6722C1411 76.9044 1408.59 70.171 1405.33 65.514C1398.84 56.2121 1389.06 51.5691 1376.08 51.5453C1366.57 51.4352 1357.28 54.3991 1349.59 59.9971L1349.58 59.9997C1341.63 65.894 1335.6 74.014 1332.24 83.3363C1328.48 93.2611 1326.6 109.132 1326.58 130.895V130.896V233.145H1270.06V123.433C1270.06 103.077 1268.57 88.2715 1265.54 79.066C1263.27 70.9195 1258.49 63.698 1251.88 58.4287L1251.87 58.4214L1251.86 58.4144C1245.45 53.7806 1237.7 51.3906 1229.79 51.614C1220.38 51.5582 1211.21 54.561 1203.65 60.1718L1203.64 60.1734C1195.55 66.2482 1189.44 74.6 1186.1 84.1642C1182.22 94.4322 1180.31 110.554 1180.33 132.478Z" stroke="#D4E9FF"/>
<path d="M1678.55 209.218C1668.92 218.784 1657.63 226.509 1645.23 232.014C1633.74 236.686 1621.43 239.011 1609.03 238.852H1609.02C1579.82 238.852 1554.57 227.523 1533.23 204.828C1511.89 182.142 1501.23 153.933 1501.26 120.166V120.165C1501.26 85.126 1511.52 56.4595 1532.03 34.1223L1532.03 34.1224L1532.04 34.1139C1541.41 23.427 1552.98 14.8972 1565.95 9.10965C1578.93 3.32214 1593 0.413902 1607.2 0.584485V0.584563L1607.21 0.584513C1620.33 0.510158 1633.33 3.14138 1645.39 8.31439C1657.79 13.7976 1669 21.6433 1678.4 31.4143L1679.26 32.3011L1679.26 31.0703L1679.4 6.60231H1735.4V233.143H1679.4V209.572V208.371L1678.55 209.218ZM1618.95 52.4377C1610.65 52.2397 1602.4 53.8234 1594.76 57.0824C1587.12 60.3428 1580.27 65.2043 1574.66 71.3396C1562.93 83.9169 1557.07 100.092 1557.05 119.821C1557.03 139.552 1562.99 155.852 1574.97 168.68C1580.54 174.85 1587.37 179.754 1594.99 183.062C1602.61 186.369 1610.85 188.004 1619.15 187.858C1627.56 188.094 1635.92 186.533 1643.68 183.282C1651.44 180.029 1658.42 175.158 1664.16 168.994C1676.05 156.391 1681.98 139.903 1681.98 119.581C1681.98 99.713 1676.05 83.5349 1664.16 71.0937C1658.34 64.9839 1651.32 60.1659 1643.52 56.952C1635.74 53.7397 1627.36 52.2017 1618.95 52.4377Z" stroke="#D4E9FF"/>
</svg>
