<?xml version="1.0" encoding="UTF-8"?>
<svg id="Layer_1" data-name="Layer 1" xmlns="http://www.w3.org/2000/svg" version="1.1" viewBox="0 0 575 934.16">
  <defs>
    <style>
      .cls-1 {
        fill: #eaf2f7;
        stroke-width: 0px;
      }
    </style>
  </defs>
  <path class="cls-1" d="M559.17,819.86v7.73h14.91v7.67c-4.46,0-9.07-.1-13.67.06-1.34.05-3.25.38-3.9,1.3-5.11,7.24-9.02,15.04-10.21,24.6h27.81v7.88c-10.68,0-21.59.16-32.49-.23-1.15-.04-3.13-3.29-3.11-5.04.1-10.46,4.13-19.74,9.59-28.46,3.9-6.23,4.09-6.92,2.79-15.56-6.16,0-12.43-.13-18.69.05-3.79.11-5.67-1.33-6.63-5.11-2.41-9.46-5.22-18.81-7.97-28.54-1.4.26-3.59.67-7.2,1.34,1.36,4.78,2.06,9.49,4,13.62,7.25,15.48,10.32,31.87,11.41,48.75.28,4.32.31,8.65.64,12.96.37,4.78-1.71,6.43-6.43,6.41-26.95-.14-53.9-.07-80.85-.08-2.66,0-5.32-.02-7.99-.01-3.48.01-5.25-1.61-5.13-5.18.75-22.89,2.71-45.48,13.87-66.25,1.51-2.8.97-6.71,1.5-11.1-7.45,1.73-8.26-3.76-10.57-7.91-3.92-7.05-5.06-14.44-4.88-22.46.47-20.96.43-41.93.5-62.9,0-2.05,1.23-5.39-2.5-5.22-1.36.06-3.13,2.3-3.83,3.92-2.64,6.15-7.8,9.69-15.23,9.92-5.41.17-12.05-4.31-14.16-10.09-1.06-2.89-1.74-6.09-1.75-9.16-.1-57.9-.14-115.8,0-173.7.02-10.27,2.66-20.19,7.77-29.09,1.71-2.99,5.32-6.18,8.49-6.72,4.32-.73,7.34,3.2,9.27,7.11,4.61,9.37,7.32,19.25,7.33,29.75.03,27.8.01,55.6.01,83.4v4.42c4.47.89,4.15-1.92,4.16-4.39.01-15.31,0-30.62.01-45.94.01-54.26,0-108.52.06-162.78.02-15.09-.71-30.28.69-45.26,1.94-20.83,13.95-35.15,33.65-41.72,20.34-6.78,38.28-1.47,53.12,14.05,1.57,1.64,2.96,3.46,5.52,4.87-.51-2.4-.64-4.97-1.61-7.17-3.22-7.29-7.08-14.31-10.02-21.71-1.79-4.5-3.19-9.49-3.27-14.28-.4-24.63-.36-49.25,3.45-73.71,8.11-52.02,27.38-99.47,57.87-142.36,1.63-2.3,3.51-4.43,5.31-6.61.83-1.01,1.75-1.95,3.23-3.6.44,5.59,1.07,9.87-2.26,14.52-30.65,42.96-49.79,90.59-57.26,142.92-3.35,23.49-2.98,47.07-2.83,71.42,9.36,0,18.42,0,27.49,0,8.08,0,7.97-.02,10.33-7.52,6.19-19.7,14.25-38.62,23.88-56.86.54.06,1.07.11,1.61.17-.66,5.95.11,12.55-2.23,17.74-11.82,26.26-21.19,53.3-25.79,81.69-2.91,17.99-5.13,36.31-5.21,54.49-.47,109.87-.23,219.75-.23,329.63v5.73h32.59v7.64h-33.25c-1.88,9.21-3.67,17.93-5.58,27.27h38.91v7.27h-47.38v42.54h47.33v8.25h-46.01c1.6,5.82,2.82,11.06,4.61,16.1.36,1,2.9,1.7,4.44,1.72,10.48.14,20.96.06,31.44.05,1.8,0,3.59,0,5.61,0v7.73h-15.09ZM433.84,595.61c1.47-.24,2.29-.32,3.08-.51,15.98-3.82,31.93-7.76,47.95-11.39,3.3-.75,5-2.05,6.03-5.36,7.46-23.93,14.77-47.92,22.9-71.63,3.85-11.23,5.35-22.42,5.06-34.18-.39-16.13-.1-32.27-.1-48.41,0-26.29.17-52.59-.07-78.88-.17-18.27-9.08-31.7-25.49-38.96-15.84-7.02-31.25-4.57-44.72,6.79-13.94,11.77-16.18,27.46-14.43,44.58,1.96.18,3.92.53,5.88.52,18.61-.08,37.22-.33,55.83-.19,1.87.01,5.1,2.09,5.29,3.54.46,3.39-2.57,3.99-5.48,3.99-20.42-.02-40.84-.01-61.55-.01v5.33c1.93,0,3.57,0,5.21,0,14.97,0,29.93,0,44.9-.01,2.94,0,6.23-.02,6.33,3.82.1,3.93-3.14,3.95-6.12,3.93-11.81-.05-23.61-.03-35.42-.03-4.93,0-9.86,0-15.09,0v217.06ZM533.66,653.28v-181.11c-1.35,1.17-1.87,2.49-2.3,3.84-11.54,36.24-23.11,72.48-34.54,108.76-.9,2.84-2.05,4.41-5.13,5.1-13.44,3.01-26.83,6.28-40.23,9.5-9.81,2.36-19.61,4.77-29.31,7.13v40.14c37.1,2.21,73.92,4.41,111.51,6.65ZM518.64,694c-28.55-1.74-56.46-3.44-84.85-5.17v74.5h84.85v-69.32ZM518.7,861.37c-.3-19.31-2.72-37.56-10.29-54.92-1.61-3.69-3.67-5.16-7.83-5.1-16.11.24-32.23.29-48.34-.07-4.92-.11-7.54,1.88-8.69,6.11-2.84,10.37-5.89,20.71-7.98,31.24-1.46,7.37-1.49,15.02-2.17,22.74h85.3ZM405.44,479.55c-5.59,9.75-8.78,18.81-8.83,28.58-.3,58.54-.38,117.09-.54,175.63-.02,6.23,3.79,10.61,9.3,10.7,5.38.09,9.31-4.38,9.29-10.68-.04-11.14-.18-22.29-.19-33.43-.02-46.93.03-93.86-.04-140.79-.01-10.34-3.24-19.8-9-30.02ZM533.54,687.16v-26.26c-37.14-2.21-74.04-4.4-111.29-6.61v26.36c37.24,2.18,74.01,4.34,111.29,6.52ZM526.76,354.42v108.59c.65.1,1.3.19,1.95.29,1.77-9.48,4.73-18.92,5.06-28.45.76-22.09.25-44.23.25-66.35,0-4.61,0-9.22,0-14.07h-7.26ZM436.93,771.52c.84,6.28,4,8,9.8,7.9,20.11-.37,40.24-.14,60.36-.14,6.4,0,7.05-.61,8.25-7.75h-78.41ZM514.08,284.06c2.03,4.48,3.84,8.49,5.67,12.48q5.58,12.21,19.82,10.94c1.68-7.64,3.39-15.41,5.15-23.42h-30.64ZM503.74,787.19h-54.93v6.6h54.93v-6.6ZM538.18,315.89h-11.45v30.59h7.9c1.19-10.27,2.36-20.31,3.55-30.59Z"/>
  <path class="cls-1" d="M309.44,244.58c-18.94,0-37.89.33-56.83-.1-15.89-.36-28.16-7.59-34.94-22.27-6.75-14.61-4.89-28.81,5.44-41.07,10.17-12.08,23.58-16.13,39.03-12.37,2.63.64,4.12.38,5.82-1.89,22.09-29.42,61.44-29.16,83.56.34.83,1.1,3.38,1.78,4.82,1.43,15.64-3.9,31.95,1.68,41.2,14.36,9.54,13.07,10.13,30.53,1.12,43.99-7.78,11.62-18.99,17.37-32.88,17.5-18.78.17-37.56.04-56.35.04v.03ZM268.66,179.25c-1.64-.77-2.96-1.43-4.3-2.02-10.8-4.76-24.57-2.19-33.21,6.19-9.61,9.31-12.23,22.03-7.17,34.7,4.29,10.73,15.87,18.74,27.54,18.75,38.56.05,77.12.11,115.68-.02,15.73-.05,30.16-12.66,30.5-30.95.31-16.62-14.1-31.15-30.54-30.79-5.76.13-11.48,2.02-17.43,3.14-19.02-35.78-63.51-33.16-81.06,1.01Z"/>
  <path class="cls-1" d="M0,932.87c6.77-13.05,15.74-25.8,25.95-36.07,34.13-34.35,75.51-50.11,123.7-46.35,37.88,2.96,70.25,18.68,97.24,45.53,1.46,1.45,4.2,2.51,6.22,2.34,34.51-2.88,64.28,7.17,88.77,32.01.58.58,2.65,2.74,3.55,3.82-3.15.02-10.43.02-10.43.02,0,0-2.61-2.58-4.21-3.98-22.7-19.77-49.16-27.67-79.02-23.86-3.43.44-5.83-.2-8.35-2.81-32.03-33.22-71.41-49.15-117.2-45.79-48.99,3.59-87.09,27.23-113.9,68.63-1.59,2.45-3.21,6.53-3.21,6.53,0,0-4.18,0-9.11,0Z"/>
  <path class="cls-1" d="M50.29,932.87c15.52-17.33,35.96-30.82,58.51-36.52,9.09-2.3,18.62-2.91,27.97-4.13,2.93-.38,6.2-.03,6.14,3.88-.06,3.64-3.33,3.54-5.99,3.62-28.22.79-50,8.86-71,27.66-2.63,2.36-5.25,4.79-5.65,5.49-1.02,0-9.23.05-9.97,0Z"/>
  <path class="cls-1" d="M138.39,696.29c-9.01-.06-17.12-7.96-17.07-16.75.06-9.38,7.37-17.6,17.15-17.81,9.47-.2,17.46,8.26,17.26,17.54-.2,9.34-8.09,17.08-17.35,17.02ZM150.34,679.17c.13-6.7-5.53-12.38-12.35-12.38-5.61,0-11.63,6.43-11.54,12.34.1,6.21,5.63,11.56,12,11.6,6.51.04,11.76-5.07,11.88-11.55Z"/>
  <path class="cls-1" d="M274.46,800.3c-9.45,0-17.2-7.7-17.16-17.06.04-9.72,7.67-17.15,17.58-17.11,9.26.03,17.1,8.01,16.98,17.28-.12,9.34-7.89,16.88-17.41,16.89ZM286.35,783.17c-.05-6.74-5.39-11.98-12.09-11.85-6.52.12-11.43,5.23-11.44,11.91-.01,6.82,5.17,11.96,11.95,11.86,6.33-.1,11.62-5.54,11.58-11.91Z"/>
  <path class="cls-1" d="M574.48,271.17c0,13.54.07,27.08-.12,40.61-.02,1.2-1.4,2.82-2.58,3.49-2.41,1.37-5.11,2.23-8.5,3.63,1.34-16.82,5.29-32.45,11.19-47.73Z"/>
  <path class="cls-1" d="M184.42,73.34c4.9.14,9.5,4.84,9.51,9.71,0,5.24-4.66,9.93-9.84,9.9-5.46-.03-10.01-4.94-9.71-10.47.26-4.92,5.05-9.28,10.05-9.13Z"/>
  <path class="cls-1" d="M140.04,447.72c-5.51-.04-9.83-4.37-9.71-9.75.11-5.42,4.5-9.57,10.03-9.48,5.32.08,9.32,4.11,9.44,9.5.11,5.41-4.25,9.76-9.75,9.73Z"/>
  <path class="cls-1" d="M182.28,716.86c.04,5.64-4.05,9.92-9.48,9.92-5.57,0-9.68-4.16-9.65-9.75.03-5.38,4.01-9.54,9.25-9.66,5.62-.13,9.84,3.92,9.88,9.49Z"/>
  <path class="cls-1" d="M455.48,908.5c.02,2.56-1.84,4.5-4.3,4.5-2.53,0-4.39-1.89-4.38-4.42.01-2.44,1.82-4.33,4.2-4.38,2.55-.06,4.47,1.78,4.48,4.31Z"/>
  <path class="cls-1" d="M381.69,932.77c9.85-2.95,15.78-3.6,23.37-3.6,3.53,0,5.42,1.72,5.42,3.54,0,.78-.23,1.43-.66,1.43h-27.88c-.46,0-.68-1.24-.24-1.37Z"/>
  <path class="cls-1" d="M448.57,919.82c0-.8,0-1.68,3.11-1.68s3.05.97,3.06,1.71c.06,5.98,0,14.3,0,14.3l-6.17-.03s.02-11.34,0-14.3Z"/>
  <path class="cls-1" d="M427.2,875.01c0-.8,0-1.68,3.11-1.68s3.05.97,3.06,1.71c.06,5.98,0,59.11,0,59.11l-6.17-.03s.02-56.15,0-59.11Z"/>
  <path class="cls-1" d="M520.45,875.01c0-.8,0-1.68,3.11-1.68s3.05.97,3.06,1.71c.06,5.98,0,59.11,0,59.11l-6.17-.03s.02-56.15,0-59.11Z"/>
  <path class="cls-1" d="M540.02,875.01c0-.8,0-1.68,3.11-1.68s3.05.97,3.06,1.71c.06,5.98,0,59.11,0,59.11l-6.17-.03s.02-56.15,0-59.11Z"/>
  <path class="cls-1" d="M448.07,878.77c0-.78,0-1.63,3.11-1.63s3.05.94,3.06,1.66c.06,5.8,0,12.81,0,18.62,0,.46,0,1.48-3.06,1.48s-3.12-.97-3.12-1.51c0-2.98.02-15.75,0-18.62Z"/>
  <path class="cls-1" d="M81.57,103.62c0,4.13.13,11.78.13,15.37,0,1.75-6.12,1.65-6.12-.06,0-3.6-.13-11.25-.13-15.53-4.27,0-11.35.28-15.22-.15-1.4-.15-1.36-5.88.06-6.04,3.73-.43,10.68-.14,15.16-.14,0-4.31-.28-11.4.15-15.28.16-1.41,5.79-1.31,5.94.13.41,3.74.14,10.69.14,15.32,4.29,0,10.78-.04,14.68-.02,1.41,0,1.3,6.23-.11,6.23-3.83,0-10.17.16-14.67.16Z"/>
  <path class="cls-1" d="M312.87,334.28c0,4.13.13,11.78.13,15.37,0,1.75-6.12,1.65-6.12-.06,0-3.6-.13-11.25-.13-15.53-4.27,0-11.35.28-15.22-.15-1.4-.15-1.36-5.88.06-6.04,3.73-.43,10.68-.14,15.16-.14,0-4.31-.28-11.4.15-15.28.16-1.41,5.79-1.31,5.94.13.41,3.74.14,10.69.14,15.32,4.29,0,10.78-.04,14.68-.02,1.41,0,1.3,6.23-.11,6.23-3.83,0-10.17.16-14.67.16Z"/>
  <path class="cls-1" d="M157.83,482.65c-2.25,0-4.73,0-4.73-3.11s2.73-3.05,4.82-3.06c16.84-.06,37.18,0,54.03,0,1.33,0,4.29,0,4.29,3.06s-2.8,3.12-4.38,3.12c-8.65,0-45.69-.02-54.03,0Z"/>
  <path class="cls-1" d="M50.63,272.83c-2.25,0-4.73,0-4.73-3.11s2.73-3.05,4.82-3.06c16.84-.06,37.18,0,54.03,0,1.33,0,4.29,0,4.29,3.06s-2.8,3.12-4.38,3.12c-8.65,0-45.69-.02-54.03,0Z"/>
  <path class="cls-1" d="M80.36,6.2c-2.25,0-4.73,0-4.73-3.11S78.36.04,80.44.03c16.84-.06,37.18,0,54.03,0,1.33,0,4.29,0,4.29,3.06s-2.8,3.12-4.38,3.12c-8.65,0-45.69-.02-54.03,0Z"/>
  <path class="cls-1" d="M334.56,71.07c-2.25,0-4.73,0-4.73-3.11s2.73-3.05,4.82-3.06c16.84-.06,37.18,0,54.03,0,1.33,0,4.29,0,4.29,3.06s-2.8,3.12-4.38,3.12c-8.65,0-45.69-.02-54.03,0Z"/>
  <path class="cls-1" d="M382.71,58.84c-2.25,0-4.73,0-4.73-3.11s2.73-3.05,4.82-3.06c16.84-.06,37.18,0,54.03,0,1.33,0,4.29,0,4.29,3.06s-2.8,3.12-4.38,3.12c-8.65,0-45.69-.02-54.03,0Z"/>
</svg>