<?xml version="1.0" encoding="UTF-8"?>
<svg id="Layer_1" data-name="Layer 1" xmlns="http://www.w3.org/2000/svg" version="1.1" viewBox="0 0 322.84 271.7">
  <defs>
    <style>
      .cls-1 {
        fill: #eaf2f7;
        stroke-width: 0px;
      }
    </style>
  </defs>
  <g>
    <path class="cls-1" d="M321.58,174.41c-5.57,1.09-11.15,2.18-17.31,3.38-8.36-15.17-21.02-25.73-39.98-25.67-18.89.06-31.69,10.46-40.65,26.64-7.81-4.07-15.72-5.72-24.12-3.4-14.72,4.06-25.06,18.7-23.16,32.81,2.25,16.67,14.89,28.09,31.19,28.09,38,.02,76.01,0,114.01,0v7.98c-1.32-.11-2.64-.3-3.95-.3-36.72,0-73.45.25-110.16-.11-15.88-.16-28.16-7.59-34.92-22.27-6.73-14.61-4.85-28.8,5.51-41.03,10.2-12.04,23.6-16.1,39.04-12.23,2.7.68,4.13.16,5.78-2.05,21.68-29.13,62.04-28.93,83.19.26.77,1.06,2.6,2.08,3.82,1.96,3.93-.39,7.8-1.32,11.7-2.05v7.98Z"/>
    <path class="cls-1" d="M36.35,103.34c0,4.13.13,11.78.13,15.37,0,1.75-6.12,1.65-6.12-.06,0-3.6-.13-11.25-.13-15.53-4.27,0-11.35.28-15.22-.15-1.4-.15-1.36-5.88.06-6.04,3.73-.43,10.68-.14,15.16-.14,0-4.31-.28-11.4.15-15.28.16-1.41,5.79-1.31,5.94.13.41,3.74.14,10.69.14,15.32,4.29,0,10.78-.04,14.68-.02,1.41,0,1.3,6.23-.11,6.23-3.83,0-10.17.16-14.67.16Z"/>
    <path class="cls-1" d="M148.85,82.84c-.14,5.26-4.89,9.84-10.04,9.68-5.28-.16-9.6-4.78-9.51-10.16.09-5.11,5.08-9.69,10.25-9.41,4.91.27,9.42,5.07,9.3,9.89Z"/>
  </g>
  <path class="cls-1" d="M34.76,6.2c-2.25,0-4.73,0-4.73-3.11S32.76.04,34.84.03c16.84-.06,37.18,0,54.03,0,1.33,0,4.29,0,4.29,3.06s-2.8,3.12-4.38,3.12c-8.65,0-45.69-.02-54.03,0Z"/>
  <path class="cls-1" d="M4.73,271.7c-2.25,0-4.73,0-4.73-3.11s2.73-3.05,4.82-3.06c16.84-.06,37.18,0,54.03,0,1.33,0,4.29,0,4.29,3.06s-2.8,3.12-4.38,3.12c-8.65,0-45.69-.02-54.03,0Z"/>
  <path class="cls-1" d="M286.45,71.27c-1.4,0-2.95,0-2.95-3.11s1.7-3.05,3-3.06c10.49-.06,23.17,0,33.66,0,.83,0,2.67,0,2.67,3.06s-1.75,3.12-2.73,3.12c-5.39,0-28.46-.02-33.66,0Z"/>
</svg>