<?xml version="1.0" encoding="UTF-8"?>
<svg id="Layer_1" data-name="Layer 1" xmlns="http://www.w3.org/2000/svg" version="1.1" viewBox="0 0 297.35 301.97">
  <defs>
    <style>
      .cls-1 {
        fill: #eaf2f7;
        stroke-width: 0px;
      }
    </style>
  </defs>
  <path class="cls-1" d="M.04,226.22c46.38-13.87,90.98-31.9,132.18-57.61,7.4-4.62,14.06-10.51,20.67-16.27,6.72-5.85,10.35-13.63,12.05-22.37,2.05-10.51-1.41-17.11-11.91-19.25-10.52-2.14-21.29-3.48-32.01-4.08-16.62-.94-33.21-.38-48.81,6.72-1.04.48-2.06,1.02-3.01,1.49,4.87,7.04,10.13,13.7,14.33,20.97,4.2,7.27,7.33,15.15,11.32,23.59,4.77-3.95,9.92-7.59,14.29-12,3.63-3.67,4.23-8.61,1.87-13.42-2.3-4.7-6.54-5.74-11.35-5.37-4.79.36-9.59.88-14.39.94-1.21.01-2.44-1.46-3.66-2.25,1.11-.79,2.14-2.07,3.36-2.27,5.88-1,11.79-2.23,17.72-2.34,3.98-.08,8.26.95,11.92,2.58,5.97,2.66,7.9,7.69,6.13,14.04-2.44,8.76-7.77,15.66-14.54,21.51-10.18,8.8-22.2,14.44-34.51,19.42-23.03,9.32-46.16,18.39-69.25,27.54-.75.3-1.6.33-2.4.49,0-2.99,0-5.98,0-8.97.65-.06,1.35.02,1.93-.22,24.27-9.7,48.56-19.36,72.77-29.21,4.66-1.89,9-4.54,13.36-6.78-.29-1.25-.32-1.77-.53-2.2-13.64-28.39-33.06-51.62-61.25-66.42-8.21-4.31-17.49-6.59-26.29-9.8,0-3.32,0-6.64,0-9.97,23.17,5.73,43.59,16.59,61.04,32.88,2.19,2.04,3.83,1.45,6.17.7,26.49-8.6,53.45-11.18,80.89-5.55,12.35,2.53,18.91,7.55,24.17,17.33,23.05-12.03,46.09-24.06,69.14-36.09.29.46.58.91.86,1.37-1.21.78-2.37,1.67-3.65,2.33-16.32,8.51-32.68,16.98-48.99,25.5-3.68,1.92-16.83,9.19-16.83,9.19,0,0,.04,2.13-.62,7.06-1.66,12.51-9,22.27-17.56,31.05-11.15,11.44-24.61,19.8-38.89,26.45-9.54,4.45-15.27,10.01-16.18,20.99-.53,6.45-3.54,12.7-5.45,19.03-.5,1.66-1.08,3.3-1.94,5.92,12.11-6.6,21-16.36,33.4-20.1-10.78,7.5-21.62,14.93-32.3,22.58-2.06,1.47-3.97,3.6-5.1,5.85-17.4,34.84-45.04,55.21-83.91,59.93-.78.09-1.51.54-2.26.82-.66-.33-1.85-.59-1.9-1.01-.22-1.63-.09-3.31-.09-4.97,1.45-.29,2.89-.77,4.35-.85,32.85-1.88,57-17.68,73.48-45.81.67-1.14,1.1-2.43,1.64-3.65-.31-.26-.62-.51-.93-.77-9.6,6.57-19.19,13.13-28.79,19.7-.36-.56-.72-1.12-1.09-1.69,8.72-5.94,17.47-11.84,26.15-17.85,2.98-2.06,6.86-3.82,8.43-6.74,6.76-12.6,10.57-26.28,13.38-40.85-1.58.57-2.51.85-3.4,1.22-15.72,6.6-31.28,13.64-47.21,19.71-15.14,5.78-30.66,10.55-46.01,15.77,0-2.66,0-5.32,0-7.97Z"/>
  <path class="cls-1" d="M.04,280.04c4.48-.78,8.97-1.55,13.45-2.33.17.58.33,1.16.5,1.74-4.65,1.19-9.3,2.38-13.95,3.57,0-1,0-1.99,0-2.99Z"/>
  <path class="cls-1" d="M.04,100.63c4.05,1.75,8.1,3.5,12.16,5.25l-.6,1.43c-3.85-.9-7.71-1.79-11.56-2.69,0-1.33,0-2.66,0-3.99Z"/>
  <path class="cls-1" d="M297.35,2.46c-.94.79-1.78,1.76-2.83,2.35-15.29,8.59-30.41,17.52-45.98,25.57-12.33,6.37-25.31,11.5-37.87,17.44-12.57,5.94-24.94,12.3-37.51,18.25-1.87.89-6.01,1.21-6.28.57-1.54-3.55,1.99-4.33,4.17-5.35,20.72-9.63,41.68-18.76,62.18-28.82,11.42-5.61,22.03-12.84,33.14-19.1,8.22-4.62,16.6-8.98,25.07-13.11,1.49-.73,3.81.25,5.75.45.05.58.11,1.17.16,1.75Z"/>
  <path class="cls-1" d="M38.2,64.95c-.97-.86-2.19-1.93-3.4-3.01,1.12-.98,2.1-2.58,3.37-2.86,29.94-6.6,58.59-16.54,85.43-31.61,8.07-4.53,16.72-8.06,25.24-11.72,1.5-.65,3.71.34,5.58.57-1.13,1.39-1.98,3.39-3.45,4.09-20.33,9.71-40.5,19.84-61.24,28.59-12.27,5.17-25.5,8.09-38.3,12-4.11,1.26-8.24,2.47-13.23,3.95Z"/>
  <path class="cls-1" d="M143.86,202.15c-1.62-1.23-3.17-1.87-3.67-2.98-.35-.79.36-2.75,1.18-3.29,11.33-7.43,22.39-15.41,34.27-21.84,17.19-9.31,34.98-17.54,52.62-25.99,1.41-.67,3.71.54,5.6.87-1.08,1.61-1.79,3.96-3.29,4.7-8.62,4.27-17.49,8.03-26.16,12.2-16.91,8.14-33.57,16.66-48.16,28.75-3.62,3-8.09,4.98-12.4,7.57Z"/>
  <path class="cls-1" d="M171.42,43.8c-30.34,12.23-57.95,26.56-83.46,44.85,12.1-13.63,70.54-45.08,83.46-44.85Z"/>
  <path class="cls-1" d="M1.55,88.5c1.37.33,2.79.51,4.1,1,18.78,7.18,34.61,18.77,48.64,32.95.83.84.88,2.46,1.29,3.72-1.16-.21-2.55-.08-3.45-.69-16.17-11-32.29-22.07-48.39-33.16-1.01-.7-1.85-1.64-2.77-2.47.19-.45.39-.9.58-1.35Z"/>
  <path class="cls-1" d="M52.64,249.02c8.39-9.94,16.78-19.89,25.16-29.83.52.44,1.04.87,1.56,1.31-6.64,11.41-14.24,22.02-25.52,29.53-.4-.34-.8-.68-1.21-1.01Z"/>
</svg>