<svg width="24" height="24" viewBox="0 0 24 24" fill="none" xmlns="http://www.w3.org/2000/svg">
<path d="M20.2843 8.7417C20.2455 8.70315 20.2147 8.65727 20.1937 8.60672C20.1728 8.55618 20.1621 8.50198 20.1622 8.44727V5.75244C20.1615 5.2448 19.9595 4.75817 19.6005 4.39925C19.2416 4.04034 18.7549 3.83846 18.2472 3.83789H15.5528C15.4429 3.8378 15.3375 3.79407 15.2599 3.71631L13.3546 1.81152C12.9901 1.46289 12.5051 1.26828 12.0007 1.26819C11.4963 1.2681 11.0113 1.46254 10.6466 1.81104L8.73938 3.71729C8.66182 3.79451 8.55683 3.83787 8.44738 3.83789H5.75305C5.24541 3.83846 4.75873 4.04034 4.39973 4.39925C4.04074 4.75817 3.83874 5.2448 3.83805 5.75244V8.44727C3.83825 8.50176 3.82765 8.55574 3.80686 8.60611C3.78608 8.65648 3.75552 8.70223 3.71696 8.74072L1.80969 10.6465C1.45212 11.0064 1.25152 11.4931 1.25171 12.0004C1.2519 12.5078 1.45286 12.9944 1.81069 13.354L3.71596 15.2583C3.75478 15.2969 3.78556 15.3427 3.80652 15.3933C3.82747 15.4438 3.83818 15.498 3.83803 15.5527V18.2476C3.83872 18.7552 4.04072 19.2418 4.39971 19.6007C4.75871 19.9597 5.24539 20.1615 5.75303 20.1621H8.44739C8.55731 20.1622 8.6627 20.2059 8.74039 20.2837L10.6457 22.1885C10.8234 22.3664 11.0344 22.5076 11.2667 22.604C11.499 22.7003 11.7481 22.75 11.9996 22.75C12.2511 22.75 12.5001 22.7005 12.7325 22.6042C12.9648 22.508 13.1759 22.3669 13.3537 22.189L15.2609 20.2827C15.3385 20.2055 15.4434 20.1621 15.5529 20.1621H18.2472C18.7549 20.1615 19.2416 19.9597 19.6005 19.6007C19.9595 19.2418 20.1615 18.7552 20.1622 18.2476V15.5527C20.1621 15.498 20.1728 15.4438 20.1937 15.3933C20.2147 15.3427 20.2455 15.2969 20.2843 15.2583L22.1905 13.3535C22.5481 12.9936 22.7487 12.5069 22.7485 11.9996C22.7483 11.4922 22.5474 11.0056 22.1896 10.646L20.2843 8.7417Z" fill="#29B6F6"/>
<path d="M12 19C15.866 19 19 15.866 19 12C19 8.13401 15.866 5 12 5C8.13401 5 5 8.13401 5 12C5 15.866 8.13401 19 12 19Z" fill="#1565C0"/>
<path d="M11.2502 14.4999C11.1188 14.5003 10.9887 14.4746 10.8673 14.4243C10.746 14.374 10.6358 14.3001 10.5432 14.2069L9.04319 12.7069C8.94896 12.6144 8.874 12.5041 8.82263 12.3824C8.77126 12.2608 8.7445 12.1301 8.74391 11.9981C8.74331 11.866 8.76888 11.7351 8.81914 11.613C8.86941 11.4909 8.94337 11.3799 9.03676 11.2865C9.13015 11.1931 9.24111 11.1192 9.36324 11.0689C9.48537 11.0186 9.61625 10.9931 9.74831 10.9937C9.88038 10.9943 10.011 11.021 10.1327 11.0724C10.2544 11.1238 10.3647 11.1987 10.4572 11.2929L11.2502 12.0859L13.5432 9.79295C13.6357 9.69872 13.746 9.62375 13.8677 9.57239C13.9894 9.52102 14.12 9.49426 14.2521 9.49366C14.3841 9.49306 14.515 9.51864 14.6371 9.5689C14.7593 9.61917 14.8702 9.69313 14.9636 9.78651C15.057 9.8799 15.131 9.99086 15.1812 10.113C15.2315 10.2351 15.2571 10.366 15.2565 10.4981C15.2559 10.6301 15.2291 10.7608 15.1778 10.8824C15.1264 11.0041 15.0514 11.1144 14.9572 11.2069L11.9572 14.2069C11.8646 14.3001 11.7544 14.374 11.633 14.4243C11.5117 14.4746 11.3816 14.5003 11.2502 14.4999Z" fill="white"/>
</svg>
